<svg xmlns="http://www.w3.org/2000/svg" viewBox="0 0 48 48">
  <!-- Google Cloud - Simplified hexagonal cloud mark -->
  <path d="M25.8 6.8L33 12.6l4.5-2.6L30.2 2.7c-1.7-1-3.8-1-5.5 0L12 10.5c-1.7 1-2.8 2.8-2.8 4.8v4.2l5.2 3V15c0-.7.4-1.3 1-1.7l10.4-6.5z" fill="#4285F4"/>
  <path d="M9.2 19.5L4.8 22c-1.7 1-2.8 2.8-2.8 4.8v15.7c0 2 1.1 3.8 2.8 4.8l5.4 3.1V38.1L7 36.4c-.6-.3-1-1-1-1.7V26.8c0-.7.4-1.3 1-1.7l2.2-1.3v-4.3z" fill="#EA4335"/>
  <path d="M10.2 50.4l12.6 7.3c1.7 1 3.8 1 5.5 0l7.2-4.2-5.2-3-4.6 2.7c-.6.3-1.3.3-1.9 0l-8.4-4.8-5.2 2z" fill="#34A853" transform="scale(.75) translate(6,0)"/>
  <path d="M38.8 28.5l5.2-3V15.3c0-2-1.1-3.8-2.8-4.8L37.5 8l-4.5 2.6 5.5 3.2c.6.3 1 1 1 1.7v9.9c0 .7-.4 1.3-1 1.7l-4.5 2.6 4.8 2.8z" fill="#FBBC05" transform="scale(.85) translate(3,2)"/>
  <!-- Simplified to recognizable Google "G" -->
  <circle cx="24" cy="24" r="10" fill="none" stroke="#4285F4" stroke-width="3" stroke-dasharray="20 43" stroke-dashoffset="-8"/>
  <circle cx="24" cy="24" r="10" fill="none" stroke="#EA4335" stroke-width="3" stroke-dasharray="12 51" stroke-dashoffset="12"/>
  <circle cx="24" cy="24" r="10" fill="none" stroke="#FBBC05" stroke-width="3" stroke-dasharray="12 51" stroke-dashoffset="24"/>
  <circle cx="24" cy="24" r="10" fill="none" stroke="#34A853" stroke-width="3" stroke-dasharray="12 51" stroke-dashoffset="37"/>
  <line x1="24" y1="24" x2="34" y2="24" stroke="#4285F4" stroke-width="3"/>
</svg>