<svg width="170" height="197" viewBox="0 0 170 197" fill="none" xmlns="http://www.w3.org/2000/svg">
<path d="M1.01398 19.0918C1.00433 16.9581 0.994799 14.8243 1.01043 12.6905C1.02389 10.9818 1.01641 9.28016 1.00892 7.57528L1.0089 7.57204L1.00882 7.55252C1.00021 5.5662 0.991576 3.57547 1.01589 1.56422V1.27051H84.6714H168.327V1.56422C168.351 3.57477 168.342 5.56482 168.334 7.55046V7.55252L168.334 7.57204L168.334 7.57528C168.326 9.28016 168.319 10.9818 168.332 12.6905C168.348 14.8243 168.338 16.9581 168.329 19.0918C168.322 20.6668 168.315 22.2418 168.318 23.8167C168.33 30.9315 168.33 38.0461 168.318 45.1607C168.313 47.9337 168.32 50.7102 168.34 53.4904C168.345 54.254 168.337 55.0769 168.328 55.9217L168.328 55.9385C168.317 57.0198 168.306 58.1363 168.323 59.2096C168.344 60.5412 168.333 61.7361 168.29 62.7942C168.088 67.8305 167.763 72.1643 167.316 75.7958C166.693 80.8674 165.881 85.5879 164.878 89.9577C163.749 94.8882 162.377 99.8915 160.763 104.968C160.162 106.857 159.063 109.813 157.467 113.837C157.114 114.73 156.724 115.623 156.326 116.517C156.199 116.801 156.072 117.084 155.945 117.368L155.934 117.392C155.666 117.991 155.397 118.591 155.136 119.19C153.98 121.853 152.544 124.82 150.826 128.089C149.091 131.392 147.283 134.585 145.402 137.667C144.524 139.106 143.529 140.689 142.415 142.421C141.999 143.068 141.578 143.694 141.156 144.317L140.975 144.585L140.948 144.624C140.699 144.991 140.451 145.357 140.203 145.728C139.587 146.647 139.019 147.47 138.499 148.194C137.664 149.359 136.826 150.504 135.982 151.629C133.126 155.437 130.207 159.022 127.145 162.448C125.315 164.496 123.391 166.477 121.493 168.423C120.477 169.466 118.367 171.469 115.164 174.432C109.589 179.593 103.595 184.326 97.1815 188.633C93.2986 191.242 89.4432 193.644 85.2022 195.916C85.0352 196.004 84.8516 196.076 84.6714 196.092C84.4911 196.076 84.3075 196.004 84.1405 195.916C79.8995 193.644 76.0441 191.242 72.1612 188.633C65.7479 184.326 59.7538 179.593 54.179 174.432C50.9761 171.469 48.8661 169.466 47.8493 168.423C45.9515 166.477 44.0281 164.496 42.1976 162.448C39.1358 159.022 36.2169 155.437 33.3607 151.629C32.5168 150.504 31.6783 149.359 30.8433 148.194C30.3234 147.47 29.7556 146.647 29.1399 145.728C28.8922 145.357 28.6433 144.991 28.3948 144.624L28.3682 144.585L28.1872 144.317C27.7649 143.694 27.3436 143.068 26.9276 142.421C25.8139 140.689 24.8183 139.106 23.9409 137.667C22.06 134.585 20.2518 131.392 18.5164 128.089C16.7992 124.82 15.3625 121.853 14.2063 119.19C13.9459 118.591 13.677 117.991 13.4084 117.392L13.3977 117.368C13.2704 117.084 13.1432 116.801 13.0169 116.517C12.6186 115.623 12.2292 114.73 11.8758 113.837C10.2797 109.813 9.18108 106.857 8.58001 104.968C6.96582 99.8915 5.59392 94.8882 4.46444 89.9577C3.46213 85.5879 2.64964 80.8674 2.02671 75.7958C1.57949 72.1643 1.25462 67.8305 1.05235 62.7942C1.00992 61.7361 0.998991 60.5412 1.01957 59.2096C1.03689 58.1363 1.02566 57.0198 1.01479 55.9385L1.01462 55.9217C1.00598 55.0769 0.997594 54.254 1.00318 53.4904C1.02262 50.7102 1.02986 47.9337 1.02504 45.1607C1.01297 38.0461 1.01297 30.9315 1.02504 23.8167C1.02809 22.2418 1.0211 20.6668 1.01398 19.0918Z" fill="#A51C30"/>
<mask id="mask0_216_5482" style="mask-type:alpha" maskUnits="userSpaceOnUse" x="1" y="1" width="168" height="196">
<path d="M1.01398 19.0918C1.00433 16.9581 0.994799 14.8243 1.01043 12.6905C1.02389 10.9818 1.01641 9.28016 1.00892 7.57528L1.0089 7.57204L1.00882 7.55252C1.00021 5.5662 0.991576 3.57547 1.01589 1.56422V1.27051H84.6714H168.327V1.56422C168.351 3.57477 168.342 5.56482 168.334 7.55046V7.55252L168.334 7.57204L168.334 7.57528C168.326 9.28016 168.319 10.9818 168.332 12.6905C168.348 14.8243 168.338 16.9581 168.329 19.0918C168.322 20.6668 168.315 22.2418 168.318 23.8167C168.33 30.9315 168.33 38.0461 168.318 45.1607C168.313 47.9337 168.32 50.7102 168.34 53.4904C168.345 54.254 168.337 55.0769 168.328 55.9217L168.328 55.9385C168.317 57.0198 168.306 58.1363 168.323 59.2096C168.344 60.5412 168.333 61.7361 168.29 62.7942C168.088 67.8305 167.763 72.1643 167.316 75.7958C166.693 80.8674 165.881 85.5879 164.878 89.9577C163.749 94.8882 162.377 99.8915 160.763 104.968C160.162 106.857 159.063 109.813 157.467 113.837C157.114 114.73 156.724 115.623 156.326 116.517C156.199 116.801 156.072 117.084 155.945 117.368L155.934 117.392C155.666 117.991 155.397 118.591 155.136 119.19C153.98 121.853 152.544 124.82 150.826 128.089C149.091 131.392 147.283 134.585 145.402 137.667C144.524 139.106 143.529 140.689 142.415 142.421C141.999 143.068 141.578 143.694 141.156 144.317L140.975 144.585L140.948 144.624C140.699 144.991 140.451 145.357 140.203 145.728C139.587 146.647 139.019 147.47 138.499 148.194C137.664 149.359 136.826 150.504 135.982 151.629C133.126 155.437 130.207 159.022 127.145 162.448C125.315 164.496 123.391 166.477 121.493 168.423C120.477 169.466 118.367 171.469 115.164 174.432C109.589 179.593 103.595 184.326 97.1815 188.633C93.2986 191.242 89.4432 193.644 85.2022 195.916C85.0352 196.004 84.8516 196.076 84.6714 196.092C84.4911 196.076 84.3075 196.004 84.1405 195.916C79.8995 193.644 76.0441 191.242 72.1612 188.633C65.7479 184.326 59.7538 179.593 54.179 174.432C50.9761 171.469 48.8661 169.466 47.8493 168.423C45.9515 166.477 44.0281 164.496 42.1976 162.448C39.1358 159.022 36.2169 155.437 33.3607 151.629C32.5168 150.504 31.6783 149.359 30.8433 148.194C30.3234 147.47 29.7556 146.647 29.1399 145.728C28.8922 145.357 28.6433 144.991 28.3948 144.624L28.3682 144.585L28.1872 144.317C27.7649 143.694 27.3436 143.068 26.9276 142.421C25.8139 140.689 24.8183 139.106 23.9409 137.667C22.06 134.585 20.2518 131.392 18.5164 128.089C16.7992 124.82 15.3625 121.853 14.2063 119.19C13.9459 118.591 13.677 117.991 13.4084 117.392L13.3977 117.368C13.2704 117.084 13.1432 116.801 13.0169 116.517C12.6186 115.623 12.2292 114.73 11.8758 113.837C10.2797 109.813 9.18108 106.857 8.58001 104.968C6.96582 99.8915 5.59392 94.8882 4.46444 89.9577C3.46213 85.5879 2.64964 80.8674 2.02671 75.7958C1.57949 72.1643 1.25462 67.8305 1.05235 62.7942C1.00992 61.7361 0.998991 60.5412 1.01957 59.2096C1.03689 58.1363 1.02566 57.0198 1.01479 55.9385L1.01462 55.9217C1.00598 55.0769 0.997594 54.254 1.00318 53.4904C1.02262 50.7102 1.02986 47.9337 1.02504 45.1607C1.01297 38.0461 1.01297 30.9315 1.02504 23.8167C1.02809 22.2418 1.0211 20.6668 1.01398 19.0918Z" fill="white"/>
</mask>
<g mask="url(#mask0_216_5482)">
<rect x="0.5" y="49.5" width="169" height="12.2308" fill="white" stroke="#101820"/>
<rect x="0.5" y="60.731" width="169" height="12.2308" fill="#A51C30" stroke="#101820"/>
<rect x="0.5" y="71.9614" width="169" height="12.2308" fill="white" stroke="#101820"/>
<rect x="0.5" y="83.1924" width="169" height="12.2308" fill="#A51C30" stroke="#101820"/>
<rect x="0.5" y="94.4231" width="169" height="12.2308" fill="white" stroke="#101820"/>
<rect x="0.5" y="105.654" width="169" height="12.2308" fill="#A51C30" stroke="#101820"/>
<rect x="0.5" y="116.885" width="169" height="12.2308" fill="white" stroke="#101820"/>
<rect x="0.5" y="128.115" width="169" height="12.2308" fill="#A51C30" stroke="#101820"/>
<rect x="0.5" y="139.346" width="169" height="12.2308" fill="white" stroke="#101820"/>
<rect x="0.5" y="150.577" width="169" height="12.2308" fill="#A51C30" stroke="#101820"/>
<rect x="0.5" y="161.808" width="169" height="12.2308" fill="white" stroke="#101820"/>
<rect x="0.5" y="184.269" width="169" height="12.2308" fill="white" stroke="#101820"/>
<rect x="0.5" y="173.039" width="169" height="12.2308" fill="#A51C30" stroke="#101820"/>
<path d="M169 49H148H127H106H85H64H43H22H1V59" stroke="#101820" stroke-width="2"/>
</g>
<path d="M1.32159 55.6512C1.31295 54.8064 1.30457 53.9835 1.31016 53.2199L1.32287 1.29371V1H84.9783H168.634V1.29371L168.598 62.5237C168.396 67.56 168.071 71.8938 167.623 75.5253C167.001 80.5969 166.188 85.3174 165.186 89.6872C164.056 94.6177 162.684 99.621 161.07 104.697C160.469 106.586 159.37 109.543 157.774 113.567C157.421 114.459 157.032 115.353 156.633 116.247C156.507 116.53 156.38 116.814 156.252 117.098L156.242 117.122C155.973 117.721 155.704 118.32 155.444 118.92C154.288 121.583 152.851 124.549 151.134 127.818C149.398 131.122 147.59 134.314 145.709 137.397C144.832 138.835 143.836 140.419 142.723 142.15C142.307 142.798 141.885 143.424 141.463 144.047L141.282 144.314L141.255 144.353C141.007 144.721 140.758 145.087 140.51 145.458C139.895 146.377 139.327 147.199 138.807 147.923C137.972 149.089 137.133 150.234 136.289 151.359C133.433 155.166 130.514 158.752 127.453 162.178C125.622 164.226 123.699 166.207 121.801 168.153C120.784 169.196 118.674 171.199 115.471 174.162C109.896 179.323 103.902 184.056 97.4884 188.363C93.6055 190.971 89.7501 193.373 85.5092 195.645C85.3422 195.734 85.1585 195.806 84.9783 195.822C84.7981 195.806 84.6144 195.734 84.4474 195.645C80.2064 193.373 76.3511 190.971 72.4681 188.363C66.0548 184.056 60.0607 179.323 54.486 174.162C51.283 171.199 49.1731 169.196 48.1563 168.153C46.2584 166.207 44.3351 164.226 42.5045 162.178C39.4427 158.752 36.5238 155.166 33.6676 151.359C32.8237 150.234 31.9853 149.089 31.1502 147.923C30.6303 147.199 30.0625 146.377 29.4468 145.458C29.1991 145.087 28.9502 144.721 28.7017 144.353M1.32159 55.6512L1.32176 55.668M1.32159 55.6512C1.32165 55.6568 1.32171 55.6624 1.32176 55.668M1.32176 55.668C1.33264 56.7493 1.34387 57.8658 1.32655 58.9391C1.30597 60.2707 1.31689 61.4656 1.35933 62.5237C1.56159 67.56 1.88646 71.8938 2.33368 75.5253C2.95661 80.5969 3.76911 85.3174 4.77141 89.6872C5.9009 94.6177 7.2728 99.621 8.88698 104.697C9.48806 106.586 10.5866 109.543 12.1828 113.567C12.5361 114.459 12.9255 115.353 13.3238 116.247C13.4502 116.53 13.5774 116.814 13.7046 117.098M13.7046 117.098L13.7153 117.122M13.7046 117.098C13.7082 117.106 13.7118 117.114 13.7153 117.122M13.7153 117.122C13.9839 117.721 14.2529 118.32 14.5133 118.92C15.6694 121.583 17.1061 124.549 18.8233 127.818C20.5587 131.122 22.3669 134.314 24.2478 137.397C25.1252 138.835 26.1208 140.419 27.2345 142.15C27.6505 142.798 28.0718 143.424 28.4941 144.047M28.7017 144.353C28.6928 144.34 28.684 144.327 28.6751 144.314M28.7017 144.353L28.6751 144.314M28.6751 144.314C28.6149 144.225 28.5543 144.136 28.4941 144.047M28.6751 144.314L28.4941 144.047" stroke="#101820" stroke-width="2"/>
<path fill-rule="evenodd" clip-rule="evenodd" d="M66.0062 10.8057H105.091V16.1963L108.218 16.3086C109.13 17.207 109.13 17.9557 108.218 18.5546H104.994V31.3573H108.316C108.611 32.0685 109.695 32.7798 108.316 33.4911H105.091V39.1063H65.9085V33.7157H63.0748C61.9535 33.2237 61.4079 32.2285 63.0748 31.4696H65.9085V18.4423H62.7817C61.7394 17.6936 61.7394 16.9449 62.7817 16.1963H65.9085L66.0062 10.8057Z" fill="white" stroke="#101820" stroke-width="0.8"/>
<path fill-rule="evenodd" clip-rule="evenodd" d="M67.3742 11.1425L67.9605 37.7585H103.039L103.528 10.9179L101.867 9.45794C98.2202 10.6259 96.0719 9.96667 93.3659 9.45794C90.9886 8.88204 88.5931 8.3834 85.4511 11.0302C83.5271 9.82909 82.2803 8.19022 76.3638 9.57025C73.921 9.99412 71.4781 10.324 69.0353 9.57025L67.3742 11.1425Z" fill="white" stroke="#101820" stroke-width="0.8"/>
<path d="M69.0354 9.68262L69.7193 35.6248L67.9605 37.7586L69.6216 35.5125C71.5299 36.449 74.0722 36.1712 76.7547 35.6248C82.3673 35.0858 83.2626 36.4236 85.474 37.2807C89.0546 34.8624 91.4532 35.7232 94.0499 35.8494C96.4601 36.1363 98.8704 36.6604 101.281 35.5125L102.844 37.6463L101.183 35.2879L101.867 9.45801" stroke="#101820" stroke-width="0.8"/>
<path d="M85.4511 37.1971V10.8057" stroke="#101820" stroke-width="0.8"/>
<path fill-rule="evenodd" clip-rule="evenodd" d="M85.4691 37.2053C84.6419 37.6931 84.0257 38.3155 83.7965 39.1851C85.2858 41.3643 86.2422 40.4132 87.1417 39.1277C86.7667 38.2352 86.1763 37.6397 85.4691 37.2053Z" fill="white" stroke="#101820" stroke-width="0.8"/>
<path fill-rule="evenodd" clip-rule="evenodd" d="M11.0062 10.8057H50.0914V16.1963L53.2183 16.3086C54.1303 17.207 54.1303 17.9557 53.2183 18.5546H49.9937V31.3573H53.316C53.6109 32.0685 54.6954 32.7798 53.316 33.4911H50.0914V39.1063H10.9085V33.7157H8.07484C6.95352 33.2237 6.40795 32.2285 8.07484 31.4696H10.9085V18.4423H7.78171C6.73943 17.6936 6.73943 16.9449 7.78171 16.1963H10.9085L11.0062 10.8057Z" fill="white" stroke="#101820" stroke-width="0.8"/>
<path fill-rule="evenodd" clip-rule="evenodd" d="M12.3742 11.1425L12.9605 37.7585H48.0395L48.528 10.9179L46.8669 9.45794C43.2202 10.6259 41.0719 9.96667 38.3659 9.45794C35.9886 8.88204 33.5931 8.3834 30.4511 11.0302C28.5271 9.82909 27.2803 8.19022 21.3638 9.57025C18.921 9.99412 16.4781 10.324 14.0353 9.57025L12.3742 11.1425Z" fill="white" stroke="#101820" stroke-width="0.8"/>
<path d="M14.0354 9.68262L14.7193 35.6248L12.9605 37.7586L14.6216 35.5125C16.5299 36.449 19.0722 36.1712 21.7547 35.6248C27.3673 35.0858 28.2626 36.4236 30.474 37.2807C34.0546 34.8624 36.4532 35.7232 39.0499 35.8494C41.4601 36.1363 43.8704 36.6604 46.2807 35.5125L47.8441 37.6463L46.1829 35.2879L46.8669 9.45801" stroke="#101820" stroke-width="0.8"/>
<path d="M30.4511 37.1971V10.8057" stroke="#101820" stroke-width="0.8"/>
<path fill-rule="evenodd" clip-rule="evenodd" d="M30.4691 37.2053C29.6419 37.6931 29.0257 38.3155 28.7965 39.1851C30.2858 41.3643 31.2422 40.4132 32.1417 39.1277C31.7667 38.2352 31.1763 37.6397 30.4691 37.2053Z" fill="white" stroke="#101820" stroke-width="0.8"/>
<path fill-rule="evenodd" clip-rule="evenodd" d="M121.006 10.8057H160.091V16.1963L163.218 16.3086C164.13 17.207 164.13 17.9557 163.218 18.5546H159.994V31.3573H163.316C163.611 32.0685 164.695 32.7798 163.316 33.4911H160.091V39.1063H120.909V33.7157H118.075C116.954 33.2237 116.408 32.2285 118.075 31.4696H120.909V18.4423H117.782C116.739 17.6936 116.739 16.9449 117.782 16.1963H120.909L121.006 10.8057Z" fill="white" stroke="#101820" stroke-width="0.8"/>
<path fill-rule="evenodd" clip-rule="evenodd" d="M122.374 11.1425L122.96 37.7585H158.039L158.528 10.9179L156.867 9.45794C153.22 10.6259 151.072 9.96667 148.366 9.45794C145.989 8.88204 143.593 8.3834 140.451 11.0302C138.527 9.82909 137.28 8.19022 131.364 9.57025C128.921 9.99412 126.478 10.324 124.035 9.57025L122.374 11.1425Z" fill="white" stroke="#101820" stroke-width="0.8"/>
<path d="M124.035 9.68262L124.719 35.6248L122.961 37.7586L124.622 35.5125C126.53 36.449 129.072 36.1712 131.755 35.6248C137.367 35.0858 138.263 36.4236 140.474 37.2807C144.055 34.8624 146.453 35.7232 149.05 35.8494C151.46 36.1363 153.87 36.6604 156.281 35.5125L157.844 37.6463L156.183 35.2879L156.867 9.45801" stroke="#101820" stroke-width="0.8"/>
<path d="M140.451 37.1971V10.8057" stroke="#101820" stroke-width="0.8"/>
<path fill-rule="evenodd" clip-rule="evenodd" d="M140.469 37.2053C139.642 37.6931 139.026 38.3155 138.796 39.1851C140.286 41.3643 141.242 40.4132 142.142 39.1277C141.767 38.2352 141.176 37.6397 140.469 37.2053Z" fill="white" stroke="#101820" stroke-width="0.8"/>
<path d="M30.4659 15V15.4535C30.0157 15.5597 29.675 15.7477 29.4437 16.0173C29.1124 16.4177 28.8186 17.0305 28.5623 17.8558L24.1268 32H23.7798L19.0161 17.672C18.7723 16.9366 18.6004 16.4872 18.5004 16.3237C18.3441 16.0704 18.1519 15.8723 17.9237 15.7293C17.6955 15.5863 17.3876 15.4944 17 15.4535V15H22.195V15.4535C21.6074 15.5271 21.2261 15.6578 21.051 15.8457C20.876 16.0337 20.7884 16.2747 20.7884 16.5689C20.7884 16.9774 20.9322 17.6148 21.2198 18.4809L24.455 28.2249L27.4557 18.6035C27.7496 17.6556 27.8965 16.9979 27.8965 16.6301C27.8965 16.3932 27.8058 16.1664 27.6245 15.9499C27.4432 15.7334 27.1369 15.5802 26.7056 15.4903C26.6743 15.4821 26.6211 15.4699 26.5461 15.4535V15H30.4659ZM34.7232 15.907V22.4766H37.5176C38.2428 22.4766 38.7273 22.3336 38.9711 22.0476C39.2962 21.6717 39.4775 21.0099 39.515 20.062H39.862V25.8472H39.515C39.4275 25.0382 39.34 24.5194 39.2524 24.2906C39.1399 24.0046 38.9555 23.7799 38.6992 23.6164C38.4429 23.453 38.049 23.3713 37.5176 23.3713H34.7232V28.85C34.7232 29.5854 34.7482 30.0328 34.7982 30.1921C34.8482 30.3515 34.9357 30.4781 35.0608 30.5721C35.1858 30.6661 35.4234 30.7131 35.7734 30.7131H37.9302C38.6492 30.7131 39.1712 30.6477 39.4963 30.5169C39.8213 30.3862 40.1339 30.1288 40.434 29.7448C40.8216 29.2382 41.2185 28.4742 41.6249 27.4528H42L40.9029 31.62H31.1035V31.1665H31.5536C31.8537 31.1665 32.1382 31.0726 32.407 30.8846C32.607 30.7539 32.743 30.5578 32.8149 30.2963C32.8868 30.0349 32.9227 29.4996 32.9227 28.6907V17.8926C32.9227 16.8385 32.8415 16.1889 32.6789 15.9438C32.4539 15.6169 32.0788 15.4535 31.5536 15.4535H31.1035V15H40.9029L41.0435 18.6402H40.6778C40.5465 17.7659 40.4012 17.1654 40.2417 16.8385C40.0823 16.5117 39.8463 16.2625 39.5338 16.0908C39.2837 15.9683 38.843 15.907 38.2116 15.907H34.7232Z" fill="#101820"/>
<path d="M84.9814 31H81.7663L77.6895 23.0516C77.3876 23.0683 77.1418 23.0767 76.9524 23.0767C76.8754 23.0767 76.7925 23.0746 76.7037 23.0704C76.6149 23.0663 76.5231 23.06 76.4283 23.0516V27.9912C76.4283 29.061 76.5112 29.7254 76.677 29.9845C76.902 30.3523 77.2395 30.5361 77.6895 30.5361H78.1603V31H73V30.5361H73.453C73.9622 30.5361 74.3263 30.3021 74.5454 29.8341C74.6698 29.575 74.7319 28.9607 74.7319 27.9912V17.0089C74.7319 15.9391 74.649 15.2746 74.4832 15.0155C74.2523 14.6478 73.9089 14.4639 73.453 14.4639H73V14H77.3876C78.6665 14 79.6095 14.1317 80.2164 14.3949C80.8233 14.6582 81.3384 15.143 81.7618 15.8492C82.1852 16.5554 82.3968 17.3975 82.3969 18.3754C82.3968 19.4201 82.1556 20.327 81.673 21.0959C81.1904 21.8648 80.4429 22.4081 79.4304 22.7257L81.9172 27.6025C82.4857 28.7225 82.9742 29.4663 83.3827 29.8341C83.7913 30.2018 84.3242 30.4358 84.9814 30.5361V31ZM76.4283 22.2618C76.5408 22.2618 76.6385 22.2639 76.7214 22.2681C76.8043 22.2723 76.8724 22.2743 76.9257 22.2743C78.0744 22.2743 78.9404 21.9233 79.5236 21.2212C80.1068 20.5192 80.3985 19.6249 80.3985 18.5383C80.3985 17.4769 80.1631 16.614 79.6924 15.9495C79.2216 15.285 78.5984 14.9528 77.8228 14.9528C77.4793 14.9528 77.0145 15.0322 76.4283 15.191V22.2618ZM95 30.5361V31H89.8397V30.5361H90.266C90.7634 30.5361 91.1246 30.3314 91.3496 29.9218C91.4917 29.6544 91.5628 29.0108 91.5628 27.9912V17.0089C91.5628 16.148 91.5243 15.5797 91.4473 15.3038C91.3881 15.0949 91.2667 14.9152 91.0832 14.7647C90.8226 14.5642 90.5503 14.4639 90.266 14.4639H89.8397V14H95V14.4639H94.5648C94.0733 14.4639 93.7151 14.6686 93.4901 15.0782C93.3421 15.3456 93.2681 15.9892 93.2681 17.0089V27.9912C93.2681 28.852 93.3066 29.4204 93.3835 29.6962C93.4427 29.9051 93.5671 30.0848 93.7566 30.2352C94.0112 30.4358 94.2806 30.5361 94.5648 30.5361H95Z" fill="#101820"/>
<path d="M134.804 15.3498L134.922 18.9379H134.624C134.566 18.3061 134.488 17.8547 134.389 17.5839C134.227 17.1476 134.011 16.8261 133.742 16.6192C133.473 16.4123 133.119 16.3089 132.68 16.3089H131.182V27.9986C131.182 28.9389 131.253 29.5256 131.394 29.7588C131.592 30.0748 131.898 30.2327 132.311 30.2327H132.68V30.6502H128.172V30.2327H128.548C128.997 30.2327 129.316 30.0371 129.504 29.646C129.619 29.4053 129.677 28.8561 129.677 27.9986V16.3089H128.399C127.902 16.3089 127.55 16.3616 127.341 16.4669C127.069 16.6098 126.836 16.8844 126.643 17.2906C126.449 17.6968 126.335 18.2459 126.298 18.9379H126L126.125 15.3498H134.804ZM142.676 25.5275H138.56L137.838 27.9422C137.661 28.5364 137.572 28.9803 137.572 29.2736C137.572 29.5068 137.649 29.7118 137.803 29.8886C137.957 30.0654 138.29 30.1801 138.803 30.2327V30.6502H135.455V30.2327C135.899 30.1199 136.187 29.9732 136.317 29.7927C136.584 29.4316 136.879 28.6982 137.203 27.5924L140.943 15H141.217L144.918 27.7278C145.216 28.7508 145.486 29.4147 145.729 29.7193C145.972 30.024 146.311 30.1951 146.745 30.2327V30.6502H142.55V30.2327C142.973 30.2026 143.26 30.1011 143.409 29.9281C143.558 29.7551 143.632 29.5444 143.632 29.2962C143.632 28.9652 143.528 28.4424 143.318 27.7278L142.676 25.5275ZM142.456 24.6925L140.653 18.5092L138.803 24.6925H142.456ZM154.294 15V20.292H154.004C153.91 19.2765 153.742 18.4678 153.499 17.866C153.256 17.2642 152.909 16.7866 152.46 16.433C152.01 16.0795 151.545 15.9027 151.064 15.9027C150.521 15.9027 150.071 16.1415 149.716 16.6192C149.36 17.0969 149.183 17.6404 149.183 18.2496C149.183 18.716 149.295 19.1411 149.52 19.5247C149.844 20.0889 150.615 20.8411 151.833 21.7814C152.826 22.5487 153.504 23.1373 153.867 23.5473C154.23 23.9572 154.51 24.4405 154.706 24.9972C154.902 25.5538 155 26.1368 155 26.7461C155 27.9046 154.688 28.9032 154.063 29.7419C153.439 30.5806 152.635 31 151.652 31C151.344 31 151.054 30.9661 150.782 30.8984C150.62 30.8608 150.284 30.7236 149.775 30.4866C149.265 30.2497 148.942 30.1312 148.806 30.1312C148.676 30.1312 148.573 30.1876 148.497 30.3004C148.421 30.4133 148.365 30.6465 148.328 31H148.038V25.7532H148.328C148.464 26.8514 148.647 27.6733 148.877 28.2186C149.107 28.764 149.458 29.2172 149.931 29.5783C150.404 29.9394 150.923 30.1199 151.488 30.1199C152.141 30.1199 152.657 29.8717 153.036 29.3752C153.415 28.8787 153.604 28.292 153.604 27.615C153.604 27.2388 153.533 26.859 153.389 26.4753C153.245 26.0917 153.022 25.7344 152.719 25.4034C152.515 25.1777 151.958 24.6982 151.049 23.9647C150.139 23.2313 149.492 22.6465 149.108 22.2102C148.724 21.7739 148.433 21.2924 148.234 20.7659C148.036 20.2393 147.936 19.6601 147.936 19.0282C147.936 17.93 148.229 16.984 148.814 16.1904C149.4 15.3968 150.144 15 151.049 15C151.613 15 152.212 15.1994 152.844 15.598C153.137 15.7861 153.343 15.8801 153.463 15.8801C153.599 15.8801 153.71 15.8218 153.797 15.7052C153.883 15.5886 153.952 15.3536 154.004 15H154.294Z" fill="#101820"/>
</svg>
