<svg xmlns="http://www.w3.org/2000/svg" viewBox="0 0 80 100">
  <!-- Yale University - Shield with open book and LUX ET VERITAS -->
  <defs>
    <linearGradient id="yg" x1="0" y1="0" x2="0" y2="1">
      <stop offset="0%" stop-color="#c4a76c" stop-opacity="1"/>
      <stop offset="100%" stop-color="#8a7648" stop-opacity="1"/>
    </linearGradient>
  </defs>
  <!-- Shield -->
  <path d="M40 4L6 18v30c0 24 14.5 38 34 44 19.5-6 34-20 34-44V18L40 4z" fill="none" stroke="url(#yg)" stroke-width="2.5"/>
  <path d="M40 10L12 22v26c0 20.5 12 32.5 28 38 16-5.5 28-17.5 28-38V22L40 10z" fill="none" stroke="#c4a76c" stroke-width="1" opacity=".3"/>
  <!-- Open book -->
  <path d="M26 32 L40 36 L54 32 L54 52 L40 56 L26 52Z" fill="none" stroke="#c4a76c" stroke-width="1.5" opacity=".7"/>
  <line x1="40" y1="36" x2="40" y2="56" stroke="#c4a76c" stroke-width="1" opacity=".5"/>
  <!-- Hebrew-inspired text lines on book pages -->
  <line x1="29" y1="38" x2="37" y2="39.5" stroke="#c4a76c" stroke-width=".8" opacity=".4"/>
  <line x1="29" y1="42" x2="37" y2="43.5" stroke="#c4a76c" stroke-width=".8" opacity=".4"/>
  <line x1="29" y1="46" x2="37" y2="47.5" stroke="#c4a76c" stroke-width=".8" opacity=".4"/>
  <line x1="43" y1="39.5" x2="51" y2="38" stroke="#c4a76c" stroke-width=".8" opacity=".4"/>
  <line x1="43" y1="43.5" x2="51" y2="42" stroke="#c4a76c" stroke-width=".8" opacity=".4"/>
  <line x1="43" y1="47.5" x2="51" y2="46" stroke="#c4a76c" stroke-width=".8" opacity=".4"/>
  <!-- LUX ET VERITAS -->
  <text x="40" y="28" text-anchor="middle" font-family="'DM Serif Display',Georgia,serif" font-size="7" fill="#c4a76c" letter-spacing="2" opacity=".8">LUX</text>
  <text x="40" y="68" text-anchor="middle" font-family="'DM Serif Display',Georgia,serif" font-size="6" fill="#c4a76c" letter-spacing="1.5" opacity=".8">ET VERITAS</text>
</svg>